<svg id="Layer_1" data-name="Layer 1" xmlns="http://www.w3.org/2000/svg" viewBox="0 0 463.18 61.34"><defs><style>.cls-1{fill:#fff;}</style></defs><rect class="cls-1" x="248.9" width="1.51" height="60"/><rect class="cls-1" x="248.91" width="1.51" height="60"/><polygon class="cls-1" points="52.12 0 37.57 37.5 22.87 0 11.24 0 0 60 11.99 60 19.11 22.43 32.99 60 42 60 55.88 22.43 63 60 75.36 60 63.75 0 52.12 0"/><rect class="cls-1" x="78.36" width="11.24" height="60"/><polygon class="cls-1" points="93.28 0 93.28 9.74 106.49 9.74 106.49 60 117.65 60 117.65 9.74 130.85 9.74 130.85 0 93.28 0"/><path class="cls-1" d="M155.78,74.45H144.54v-60h26.69a22.72,22.72,0,0,1,5.4,1.06,18.07,18.07,0,0,1,7.51,5q3.74,3.9,3.73,11.24,0,7.65-4,11.55a18.38,18.38,0,0,1-8.17,5,26,26,0,0,1-6.08,1.13l20,25.05H176l-18.3-24.76V38.89l11.17-.07h.61a7.77,7.77,0,0,0,4.65-1.72,6.41,6.41,0,0,0,2.54-5.4,6.87,6.87,0,0,0-2.1-5.17,8.18,8.18,0,0,0-5.7-2H155.78Z" transform="translate(-10 -14.45)"/><polygon class="cls-1" points="179.54 0 214.25 0 214.25 9.74 190.78 9.74 190.78 25.12 214.03 25.12 214.03 34.86 190.78 34.86 190.78 50.26 214.25 50.26 214.25 60 179.54 60 179.54 0"/><path class="cls-1" d="M326,25v6.46h-18.9V41h13.73v6.45H307.06V58.72h19.52v6.45H299.39V25Z" transform="translate(-10 -14.45)"/><path class="cls-1" d="M354,45.21v20h-6.89v-19c0-3.16-.95-4.89-3.56-4.89a8.67,8.67,0,0,0-6.45,3.06V65.17h-6.89V36.26h6.34v3.11c3.5-2.5,6.22-3.67,8.89-3.67C351,35.7,354,39.43,354,45.21Z" transform="translate(-10 -14.45)"/><path class="cls-1" d="M383.29,35.76v4.67c-1.73,0-3.39,0-4.45.66a8.63,8.63,0,0,1,1.56,5.12c0,6.06-4.17,9.34-11.13,9.34-4.89,0-5.17,1-5.17,1.73,0,1.44,1.45,2,6.34,2.22s8,.78,10,2.11a6.24,6.24,0,0,1,2.72,5.62c0,4.84-5.17,8.56-13.4,8.56s-12.9-2.61-12.9-6.89a5.08,5.08,0,0,1,5.23-5.34v-.11c-3.28-1.39-4.29-2.73-4.29-4.67,0-2.28,2.23-4.4,4.51-5.29-3.06-2.44-4.28-4.78-4.28-7.72,0-5.51,4.5-10,11.34-10a11.66,11.66,0,0,1,7.17,2.55c1.28-1.61,3.17-2.55,6.12-2.55ZM370.78,71.23c3.89,0,6-1.78,6-3.22,0-1.78-3-3.34-8.73-3.34-3.06,0-4.89,1.5-4.89,3.34C363.16,70.4,365.33,71.23,370.78,71.23Zm-1.45-20.79a4.71,4.71,0,0,0,4.73-4.79,4.87,4.87,0,1,0-4.73,4.79Z" transform="translate(-10 -14.45)"/><path class="cls-1" d="M407.46,47.1V61.22a12,12,0,0,0,.56,4h-6.73l-.45-2.5a15.21,15.21,0,0,1-8.95,3.06c-4.89,0-7.89-3.28-7.89-7.68,0-6.56,5.45-10.06,16.57-11.34V44.26c0-2.22-1.78-3.44-4.29-3.44A7.44,7.44,0,0,0,390,44.37L385.55,41c1.89-3,6.12-5.28,10.51-5.28C404.29,35.7,407.46,39,407.46,47.1ZM394.23,60.61c1.78,0,4.33-1.33,6.34-3.06V51.33c-8,1.27-9.68,3.33-9.68,5.89A3.14,3.14,0,0,0,394.23,60.61Z" transform="translate(-10 -14.45)"/><path class="cls-1" d="M436.58,35.76v4.67c-1.72,0-3.39,0-4.44.66a8.63,8.63,0,0,1,1.55,5.12c0,6.06-4.17,9.34-11.12,9.34-4.89,0-5.17,1-5.17,1.73,0,1.44,1.45,2,6.34,2.22s8,.78,9.95,2.11a6.23,6.23,0,0,1,2.73,5.62c0,4.84-5.17,8.56-13.4,8.56s-12.9-2.61-12.9-6.89a5.08,5.08,0,0,1,5.22-5.34v-.11c-3.28-1.39-4.28-2.73-4.28-4.67,0-2.28,2.23-4.4,4.51-5.29-3.06-2.44-4.29-4.78-4.29-7.72,0-5.51,4.51-10,11.35-10a11.66,11.66,0,0,1,7.17,2.55c1.28-1.61,3.17-2.55,6.12-2.55ZM424.07,71.23c3.9,0,6-1.78,6-3.22,0-1.78-3-3.34-8.73-3.34-3.06,0-4.89,1.5-4.89,3.34C416.46,70.4,418.62,71.23,424.07,71.23Zm-1.44-20.79a4.7,4.7,0,0,0,4.72-4.79,4.87,4.87,0,1,0-4.72,4.79Z" transform="translate(-10 -14.45)"/><path class="cls-1" d="M461.48,48.82v3H444c.05,5.28,2.28,8.34,6,8.34,2.5,0,4.17-.73,6.45-3.45l5,3.11c-2.67,4.06-6.56,5.9-12.07,5.9-7.56,0-12.29-5.84-12.29-15s4.73-15,12.62-15C457.81,35.7,461.48,42.82,461.48,48.82Zm-6.34-1.66c-.06-3.95-2.23-6.34-5.56-6.34S444.18,43,444,47.16Z" transform="translate(-10 -14.45)"/><path class="cls-1" d="M465.08,25v.85h-2v5.63H462V25.82h-2V25Zm2.6,0,1.95,4.91L471.52,25h1.66v6.48h-1.07V26h0L470,31.45h-.69L467.13,26h0v5.41H466V25Z" transform="translate(-10 -14.45)"/></svg>